# MagicaVoxel @ Ephtracy

# group
o 

# material
mtllib creeper.mtl
usemtl palette

# normals
vn -1 0 0
vn 1 0 0
vn 0 0 1
vn 0 0 -1
vn 0 -1 0
vn 0 1 0

# texcoords
vt 0.970703 0.5
vt 0.974609 0.5

# verts
v 0 2 -2.4
v 0 2 -2.6
v 0 2 -3
v 0 2 -3.4
v 0 2 -3.6
v 0 2 -4
v 0 2.1 -2.5
v 0 2.1 -2.6
v 0 2.1 -3.5
v 0 2.1 -3.6
v 0 2.2 -2.4
v 0 2.2 -2.5
v 0 2.2 -3.4
v 0 2.2 -3.5
v 0 2.5 -3
v 0 2.5 -3.4
v 0 2.6 -2.4
v 0 2.6 -3
v 0 2.6 -3.4
v 0 2.6 -4
v 0 3.8 -2.8
v 0 3.8 -3
v 0 3.8 -3.4
v 0 3.8 -3.6
v 0 4.6 -2.8
v 0 4.6 -3.6
v 0.8 2 -2.4
v 0.8 2 -2.6
v 0.8 2 -3
v 0.8 2 -3.4
v 0.8 2 -3.6
v 0.8 2 -4
v 0.8 2.1 -2.5
v 0.8 2.1 -2.6
v 0.8 2.1 -3.5
v 0.8 2.1 -3.6
v 0.8 2.2 -2.4
v 0.8 2.2 -2.5
v 0.8 2.2 -3.4
v 0.8 2.2 -3.5
v 0.8 2.5 -3
v 0.8 2.5 -3.4
v 0.8 2.6 -2.4
v 0.8 2.6 -3
v 0.8 2.6 -3.4
v 0.8 2.6 -4
v 0.8 3.8 -2.8
v 0.8 3.8 -3
v 0.8 3.8 -3.4
v 0.8 3.8 -3.6
v 0.8 4.6 -2.8
v 0.8 4.6 -3.6
v 0 2 -2.4
v 0 2.2 -2.4
v 0 2.6 -2.4
v 0.8 2 -2.4
v 0.8 2.2 -2.4
v 0.8 2.6 -2.4
v 0 3.8 -2.8
v 0 4.6 -2.8
v 0.1 4.2 -2.8
v 0.1 4.4 -2.8
v 0.2 3.8 -2.8
v 0.2 4.1 -2.8
v 0.3 3.8 -2.8
v 0.3 3.9 -2.8
v 0.3 4.1 -2.8
v 0.3 4.2 -2.8
v 0.3 4.4 -2.8
v 0.5 3.8 -2.8
v 0.5 3.9 -2.8
v 0.5 4.1 -2.8
v 0.5 4.2 -2.8
v 0.5 4.4 -2.8
v 0.6 3.8 -2.8
v 0.6 4.1 -2.8
v 0.7 4.2 -2.8
v 0.7 4.4 -2.8
v 0.8 3.8 -2.8
v 0.8 4.6 -2.8
v 0 2.6 -3
v 0 3.8 -3
v 0.8 2.6 -3
v 0.8 3.8 -3
v 0 2 -3.4
v 0 2.2 -3.4
v 0 2.5 -3.4
v 0.8 2 -3.4
v 0.8 2.2 -3.4
v 0.8 2.5 -3.4
v 0 2 -3
v 0 2.5 -3
v 0.8 2 -3
v 0.8 2.5 -3
v 0 2.6 -3.4
v 0 3.8 -3.4
v 0.8 2.6 -3.4
v 0.8 3.8 -3.4
v 0 3.8 -3.6
v 0 4.6 -3.6
v 0.8 3.8 -3.6
v 0.8 4.6 -3.6
v 0 2 -4
v 0 2.6 -4
v 0.8 2 -4
v 0.8 2.6 -4
v 0 2 -2.4
v 0.8 2 -2.4
v 0 2 -2.6
v 0.8 2 -2.6
v 0 2 -3
v 0.8 2 -3
v 0 2 -3.4
v 0.8 2 -3.4
v 0 2 -3.6
v 0.8 2 -3.6
v 0 2 -4
v 0.8 2 -4
v 0 2.5 -3
v 0.8 2.5 -3
v 0 2.5 -3.4
v 0.8 2.5 -3.4
v 0 3.8 -2.8
v 0.2 3.8 -2.8
v 0.3 3.8 -2.8
v 0.5 3.8 -2.8
v 0.6 3.8 -2.8
v 0.8 3.8 -2.8
v 0.2 3.8 -2.9
v 0.3 3.8 -2.9
v 0.5 3.8 -2.9
v 0.6 3.8 -2.9
v 0 3.8 -3
v 0.8 3.8 -3
v 0 3.8 -3.4
v 0.8 3.8 -3.4
v 0 3.8 -3.6
v 0.8 3.8 -3.6
v 0 2.6 -2.4
v 0.8 2.6 -2.4
v 0 2.6 -3
v 0.8 2.6 -3
v 0 2.6 -3.4
v 0.8 2.6 -3.4
v 0 2.6 -4
v 0.8 2.6 -4
v 0 4.6 -2.8
v 0.8 4.6 -2.8
v 0 4.6 -3.6
v 0.8 4.6 -3.6

# faces
f 7/2/1 2/2/1 1/2/1
f 8/1/1 3/1/1 2/1/1
f 8/2/1 2/2/1 7/2/1
f 9/2/1 5/2/1 4/2/1
f 10/1/1 6/1/1 5/1/1
f 10/2/1 5/2/1 9/2/1
f 11/2/1 7/2/1 1/2/1
f 12/1/1 8/1/1 7/1/1
f 12/2/1 7/2/1 11/2/1
f 13/2/1 9/2/1 4/2/1
f 14/1/1 10/1/1 9/1/1
f 14/2/1 9/2/1 13/2/1
f 15/1/1 8/1/1 12/1/1
f 15/1/1 3/1/1 8/1/1
f 15/1/1 12/1/1 11/1/1
f 16/1/1 14/1/1 13/1/1
f 17/1/1 15/1/1 11/1/1
f 17/1/1 16/1/1 15/1/1
f 18/1/1 16/1/1 17/1/1
f 19/1/1 14/1/1 16/1/1
f 19/1/1 16/1/1 18/1/1
f 20/1/1 10/1/1 14/1/1
f 20/1/1 14/1/1 19/1/1
f 20/1/1 6/1/1 10/1/1
f 22/1/1 19/1/1 18/1/1
f 23/1/1 19/1/1 22/1/1
f 25/1/1 22/1/1 21/1/1
f 25/1/1 24/1/1 23/1/1
f 25/1/1 23/1/1 22/1/1
f 26/1/1 24/1/1 25/1/1
f 27/2/2 28/2/2 33/2/2
f 28/1/2 29/1/2 34/1/2
f 33/2/2 28/2/2 34/2/2
f 30/2/2 31/2/2 35/2/2
f 31/1/2 32/1/2 36/1/2
f 35/2/2 31/2/2 36/2/2
f 27/2/2 33/2/2 37/2/2
f 33/1/2 34/1/2 38/1/2
f 37/2/2 33/2/2 38/2/2
f 30/2/2 35/2/2 39/2/2
f 35/1/2 36/1/2 40/1/2
f 39/2/2 35/2/2 40/2/2
f 38/1/2 34/1/2 41/1/2
f 34/1/2 29/1/2 41/1/2
f 37/1/2 38/1/2 41/1/2
f 39/1/2 40/1/2 42/1/2
f 37/1/2 41/1/2 43/1/2
f 41/1/2 42/1/2 43/1/2
f 43/1/2 42/1/2 44/1/2
f 42/1/2 40/1/2 45/1/2
f 44/1/2 42/1/2 45/1/2
f 40/1/2 36/1/2 46/1/2
f 45/1/2 40/1/2 46/1/2
f 36/1/2 32/1/2 46/1/2
f 44/1/2 45/1/2 48/1/2
f 48/1/2 45/1/2 49/1/2
f 47/1/2 48/1/2 51/1/2
f 49/1/2 50/1/2 51/1/2
f 48/1/2 49/1/2 51/1/2
f 51/1/2 50/1/2 52/1/2
f 56/2/3 54/2/3 53/2/3
f 57/1/3 55/1/3 54/1/3
f 57/2/3 54/2/3 56/2/3
f 58/1/3 55/1/3 57/1/3
f 61/1/3 60/1/3 59/1/3
f 62/1/3 60/1/3 61/1/3
f 63/1/3 61/1/3 59/1/3
f 64/1/3 61/1/3 63/1/3
f 65/2/3 64/2/3 63/2/3
f 66/2/3 64/2/3 65/2/3
f 67/1/3 61/1/3 64/1/3
f 67/2/3 64/2/3 66/2/3
f 68/2/3 62/2/3 61/2/3
f 68/1/3 61/1/3 67/1/3
f 69/1/3 60/1/3 62/1/3
f 69/2/3 62/2/3 68/2/3
f 70/1/3 66/1/3 65/1/3
f 71/2/3 68/2/3 67/2/3
f 71/1/3 66/1/3 70/1/3
f 71/2/3 67/2/3 66/2/3
f 72/2/3 68/2/3 71/2/3
f 73/1/3 69/1/3 68/1/3
f 73/2/3 68/2/3 72/2/3
f 74/1/3 60/1/3 69/1/3
f 74/1/3 69/1/3 73/1/3
f 75/2/3 72/2/3 71/2/3
f 75/2/3 71/2/3 70/2/3
f 76/1/3 73/1/3 72/1/3
f 76/2/3 72/2/3 75/2/3
f 77/2/3 74/2/3 73/2/3
f 77/1/3 73/1/3 76/1/3
f 77/1/3 76/1/3 75/1/3
f 78/1/3 60/1/3 74/1/3
f 78/2/3 74/2/3 77/2/3
f 79/1/3 77/1/3 75/1/3
f 79/1/3 78/1/3 77/1/3
f 80/1/3 60/1/3 78/1/3
f 80/1/3 78/1/3 79/1/3
f 83/1/3 82/1/3 81/1/3
f 84/1/3 82/1/3 83/1/3
f 88/2/3 86/2/3 85/2/3
f 89/1/3 87/1/3 86/1/3
f 89/2/3 86/2/3 88/2/3
f 90/1/3 87/1/3 89/1/3
f 91/1/4 92/1/4 93/1/4
f 93/1/4 92/1/4 94/1/4
f 95/1/4 96/1/4 97/1/4
f 97/1/4 96/1/4 98/1/4
f 99/1/4 100/1/4 101/1/4
f 101/1/4 100/1/4 102/1/4
f 103/1/4 104/1/4 105/1/4
f 105/1/4 104/1/4 106/1/4
f 109/2/5 108/2/5 107/2/5
f 110/2/5 108/2/5 109/2/5
f 111/1/5 110/1/5 109/1/5
f 112/1/5 110/1/5 111/1/5
f 115/2/5 114/2/5 113/2/5
f 116/2/5 114/2/5 115/2/5
f 117/1/5 116/1/5 115/1/5
f 118/1/5 116/1/5 117/1/5
f 121/1/5 120/1/5 119/1/5
f 122/1/5 120/1/5 121/1/5
f 129/1/5 124/1/5 123/1/5
f 129/2/5 125/2/5 124/2/5
f 130/1/5 126/1/5 125/1/5
f 130/2/5 125/2/5 129/2/5
f 131/2/5 127/2/5 126/2/5
f 131/1/5 126/1/5 130/1/5
f 132/1/5 128/1/5 127/1/5
f 132/2/5 127/2/5 131/2/5
f 133/1/5 131/1/5 130/1/5
f 133/1/5 130/1/5 129/1/5
f 133/1/5 132/1/5 131/1/5
f 133/1/5 129/1/5 123/1/5
f 134/1/5 128/1/5 132/1/5
f 134/1/5 132/1/5 133/1/5
f 137/1/5 136/1/5 135/1/5
f 138/1/5 136/1/5 137/1/5
f 139/1/6 140/1/6 141/1/6
f 141/1/6 140/1/6 142/1/6
f 143/1/6 144/1/6 145/1/6
f 145/1/6 144/1/6 146/1/6
f 147/1/6 148/1/6 149/1/6
f 149/1/6 148/1/6 150/1/6
