# MagicaVoxel @ Ephtracy

# group
o 

# material
mtllib TV.mtl
usemtl palette

# normals
vn -1 0 0
vn 1 0 0
vn 0 0 1
vn 0 0 -1
vn 0 -1 0
vn 0 1 0

# texcoords
vt 0.939453 0.5
vt 0.970703 0.5
vt 0.974609 0.5

# verts
v 0.5 2.8 -1.5
v 0.5 2.8 -1.8
v 0.5 4.5 -1.5
v 0.5 4.5 -1.8
v 1.4 2 -1.6
v 1.4 2 -2.3
v 1.4 2.1 -1.6
v 1.4 2.1 -2.3
v 1.6 2.8 -1.8
v 1.6 2.8 -1.9
v 1.6 3 -1.8
v 1.6 3.4 -1.8
v 1.6 3.4 -1.9
v 1.7 2.1 -1.8
v 1.7 2.1 -2.1
v 1.7 2.8 -1.8
v 1.7 2.8 -1.9
v 1.7 2.8 -2.1
v 1.7 2.9 -1.9
v 1.7 2.9 -2.1
v 1.7 3.3 -1.9
v 1.7 3.3 -2.1
v 1.8 2.8 -1.9
v 1.8 2.8 -2.1
v 1.8 2.9 -1.9
v 1.8 2.9 -2.1
v 1.8 2.9 -2.2
v 1.8 3.2 -2.1
v 1.8 3.2 -2.2
v 3.4 3 -1.6
v 3.4 3 -1.7
v 3.4 3.1 -1.6
v 3.4 3.1 -1.7
v 3.4 3.5 -1.6
v 3.4 3.5 -1.7
v 3.4 4.3 -1.6
v 3.4 4.3 -1.7
v 3.5 2.9 -1.5
v 3.5 2.9 -1.6
v 3.5 3.1 -1.5
v 3.5 3.1 -1.6
v 3.5 3.5 -1.5
v 3.5 3.5 -1.6
v 3.5 4.4 -1.5
v 3.5 4.4 -1.6
v 0.6 2.9 -1.5
v 0.6 2.9 -1.6
v 0.6 4.4 -1.5
v 0.6 4.4 -1.6
v 0.7 3 -1.6
v 0.7 3 -1.7
v 0.7 4.3 -1.6
v 0.7 4.3 -1.7
v 2.3 2.9 -2.1
v 2.3 2.9 -2.2
v 2.3 3.2 -2.1
v 2.3 3.2 -2.2
v 2.4 2.1 -1.8
v 2.4 2.1 -2.1
v 2.4 2.8 -1.8
v 2.4 2.8 -2.1
v 2.5 2.8 -1.8
v 2.5 2.8 -2.1
v 2.5 3 -1.8
v 2.5 3.3 -1.9
v 2.5 3.3 -2.1
v 2.5 3.4 -1.8
v 2.5 3.4 -1.9
v 2.7 2 -1.6
v 2.7 2 -2.3
v 2.7 2.1 -1.6
v 2.7 2.1 -2.3
v 3.6 2.8 -1.5
v 3.6 2.8 -1.8
v 3.6 3.1 -1.5
v 3.6 3.1 -1.8
v 3.6 3.5 -1.5
v 3.6 3.5 -1.8
v 3.6 4.5 -1.5
v 3.6 4.5 -1.8
v 0.5 2.8 -1.5
v 0.5 4.5 -1.5
v 0.6 2.9 -1.5
v 0.6 4.4 -1.5
v 3.5 2.9 -1.5
v 3.5 3.1 -1.5
v 3.5 3.5 -1.5
v 3.5 4.4 -1.5
v 3.6 2.8 -1.5
v 3.6 3.1 -1.5
v 3.6 3.5 -1.5
v 3.6 4.5 -1.5
v 0.6 2.9 -1.6
v 0.6 4.4 -1.6
v 0.7 3 -1.6
v 0.7 4.3 -1.6
v 1.4 2 -1.6
v 1.4 2.1 -1.6
v 2.7 2 -1.6
v 2.7 2.1 -1.6
v 3.4 3 -1.6
v 3.4 3.1 -1.6
v 3.4 3.5 -1.6
v 3.4 4.3 -1.6
v 3.5 2.9 -1.6
v 3.5 3.1 -1.6
v 3.5 3.5 -1.6
v 3.5 4.4 -1.6
v 0.7 3 -1.7
v 0.7 4.3 -1.7
v 3.4 3 -1.7
v 3.4 3.1 -1.7
v 3.4 3.5 -1.7
v 3.4 4.3 -1.7
v 1.7 2.1 -1.8
v 1.7 2.8 -1.8
v 2.4 2.1 -1.8
v 2.4 2.8 -1.8
v 0.5 2.8 -1.8
v 0.5 4.5 -1.8
v 0.7 3 -1.8
v 0.7 4.3 -1.8
v 1.6 2.8 -1.8
v 1.6 3 -1.8
v 1.6 3.4 -1.8
v 2.5 2.8 -1.8
v 2.5 3 -1.8
v 2.5 3.4 -1.8
v 3.4 3 -1.8
v 3.4 3.1 -1.8
v 3.4 3.5 -1.8
v 3.4 4.3 -1.8
v 3.6 2.8 -1.8
v 3.6 3.1 -1.8
v 3.6 3.5 -1.8
v 3.6 4.5 -1.8
v 1.6 2.8 -1.9
v 1.6 3.4 -1.9
v 1.7 2.8 -1.9
v 1.7 2.9 -1.9
v 1.7 3.3 -1.9
v 1.8 2.8 -1.9
v 1.8 2.9 -1.9
v 2.5 3.3 -1.9
v 2.5 3.4 -1.9
v 1.7 2.1 -2.1
v 1.7 2.8 -2.1
v 1.7 2.9 -2.1
v 1.7 3.3 -2.1
v 1.8 2.8 -2.1
v 1.8 2.9 -2.1
v 1.8 3.2 -2.1
v 2.3 2.8 -2.1
v 2.3 2.9 -2.1
v 2.3 3.2 -2.1
v 2.4 2.1 -2.1
v 2.4 2.8 -2.1
v 2.5 2.8 -2.1
v 2.5 3.3 -2.1
v 1.8 2.9 -2.2
v 1.8 3.2 -2.2
v 2.3 2.9 -2.2
v 2.3 3.2 -2.2
v 1.4 2 -2.3
v 1.4 2.1 -2.3
v 2.7 2 -2.3
v 2.7 2.1 -2.3
v 1.4 2 -1.6
v 2.7 2 -1.6
v 1.4 2 -2.3
v 2.7 2 -2.3
v 0.5 2.8 -1.5
v 3.6 2.8 -1.5
v 0.5 2.8 -1.8
v 1.6 2.8 -1.8
v 1.7 2.8 -1.8
v 2.4 2.8 -1.8
v 2.5 2.8 -1.8
v 3.6 2.8 -1.8
v 1.6 2.8 -1.9
v 1.7 2.8 -1.9
v 2.4 2.8 -2.1
v 2.5 2.8 -2.1
v 1.7 2.9 -1.9
v 1.8 2.9 -1.9
v 1.7 2.9 -2.1
v 1.8 2.9 -2.1
v 2.3 2.9 -2.1
v 1.8 2.9 -2.2
v 2.3 2.9 -2.2
v 0.7 4.3 -1.6
v 3.4 4.3 -1.6
v 0.7 4.3 -1.7
v 3.4 4.3 -1.7
v 0.6 4.4 -1.5
v 3.5 4.4 -1.5
v 0.6 4.4 -1.6
v 3.5 4.4 -1.6
v 1.4 2.1 -1.6
v 2.7 2.1 -1.6
v 1.7 2.1 -1.8
v 2.4 2.1 -1.8
v 1.7 2.1 -2.1
v 2.4 2.1 -2.1
v 1.4 2.1 -2.3
v 2.7 2.1 -2.3
v 1.7 2.8 -1.9
v 1.8 2.8 -1.9
v 1.7 2.8 -2.1
v 1.8 2.8 -2.1
v 0.6 2.9 -1.5
v 3.5 2.9 -1.5
v 0.6 2.9 -1.6
v 3.5 2.9 -1.6
v 0.7 3 -1.6
v 3.4 3 -1.6
v 0.7 3 -1.7
v 3.4 3 -1.7
v 1.8 3.2 -2.1
v 2.3 3.2 -2.1
v 1.8 3.2 -2.2
v 2.3 3.2 -2.2
v 1.7 3.3 -1.9
v 2.5 3.3 -1.9
v 1.7 3.3 -2.1
v 2.5 3.3 -2.1
v 1.6 3.4 -1.8
v 2.5 3.4 -1.8
v 1.6 3.4 -1.9
v 2.5 3.4 -1.9
v 0.5 4.5 -1.5
v 3.6 4.5 -1.5
v 0.5 4.5 -1.8
v 3.6 4.5 -1.8

# faces
f 3/2/1 2/2/1 1/2/1
f 4/2/1 2/2/1 3/2/1
f 7/2/1 6/2/1 5/2/1
f 8/2/1 6/2/1 7/2/1
f 11/2/1 10/2/1 9/2/1
f 12/2/1 10/2/1 11/2/1
f 13/2/1 10/2/1 12/2/1
f 16/3/1 15/3/1 14/3/1
f 17/3/1 15/3/1 16/3/1
f 18/3/1 15/3/1 17/3/1
f 21/2/1 20/2/1 19/2/1
f 22/2/1 20/2/1 21/2/1
f 25/3/1 24/3/1 23/3/1
f 26/3/1 24/3/1 25/3/1
f 28/3/1 27/3/1 26/3/1
f 29/3/1 27/3/1 28/3/1
f 32/2/1 31/2/1 30/2/1
f 33/2/1 31/2/1 32/2/1
f 34/3/1 33/3/1 32/3/1
f 35/3/1 33/3/1 34/3/1
f 36/2/1 35/2/1 34/2/1
f 37/2/1 35/2/1 36/2/1
f 40/2/1 39/2/1 38/2/1
f 41/2/1 39/2/1 40/2/1
f 42/3/1 41/3/1 40/3/1
f 43/3/1 41/3/1 42/3/1
f 44/2/1 43/2/1 42/2/1
f 45/2/1 43/2/1 44/2/1
f 46/2/2 47/2/2 48/2/2
f 48/2/2 47/2/2 49/2/2
f 50/2/2 51/2/2 52/2/2
f 52/2/2 51/2/2 53/2/2
f 54/3/2 55/3/2 56/3/2
f 56/3/2 55/3/2 57/3/2
f 58/3/2 59/3/2 60/3/2
f 60/3/2 59/3/2 61/3/2
f 62/2/2 63/2/2 64/2/2
f 64/2/2 63/2/2 65/2/2
f 65/2/2 63/2/2 66/2/2
f 64/2/2 65/2/2 67/2/2
f 67/2/2 65/2/2 68/2/2
f 69/2/2 70/2/2 71/2/2
f 71/2/2 70/2/2 72/2/2
f 73/2/2 74/2/2 75/2/2
f 75/2/2 74/2/2 76/2/2
f 75/3/2 76/3/2 77/3/2
f 77/3/2 76/3/2 78/3/2
f 77/2/2 78/2/2 79/2/2
f 79/2/2 78/2/2 80/2/2
f 83/2/3 82/2/3 81/2/3
f 84/2/3 82/2/3 83/2/3
f 85/2/3 83/2/3 81/2/3
f 88/2/3 82/2/3 84/2/3
f 89/2/3 85/2/3 81/2/3
f 89/2/3 86/2/3 85/2/3
f 90/3/3 87/3/3 86/3/3
f 90/2/3 86/2/3 89/2/3
f 91/2/3 88/2/3 87/2/3
f 91/3/3 87/3/3 90/3/3
f 92/2/3 82/2/3 88/2/3
f 92/2/3 88/2/3 91/2/3
f 95/2/3 94/2/3 93/2/3
f 96/2/3 94/2/3 95/2/3
f 99/2/3 98/2/3 97/2/3
f 100/2/3 98/2/3 99/2/3
f 101/2/3 95/2/3 93/2/3
f 104/2/3 94/2/3 96/2/3
f 105/2/3 101/2/3 93/2/3
f 105/2/3 102/2/3 101/2/3
f 106/3/3 103/3/3 102/3/3
f 106/2/3 102/2/3 105/2/3
f 107/2/3 104/2/3 103/2/3
f 107/3/3 103/3/3 106/3/3
f 108/2/3 94/2/3 104/2/3
f 108/2/3 104/2/3 107/2/3
f 111/1/3 110/1/3 109/1/3
f 112/1/3 110/1/3 111/1/3
f 113/1/3 110/1/3 112/1/3
f 114/1/3 110/1/3 113/1/3
f 117/3/3 116/3/3 115/3/3
f 118/3/3 116/3/3 117/3/3
f 119/2/4 120/2/4 121/2/4
f 121/2/4 120/2/4 122/2/4
f 119/2/4 121/2/4 123/2/4
f 121/1/4 122/1/4 124/1/4
f 123/2/4 121/2/4 124/2/4
f 124/1/4 122/1/4 125/1/4
f 125/1/4 122/1/4 128/1/4
f 126/2/4 127/2/4 129/2/4
f 127/1/4 128/1/4 129/1/4
f 129/1/4 128/1/4 130/1/4
f 128/1/4 122/1/4 131/1/4
f 130/1/4 128/1/4 131/1/4
f 122/2/4 120/2/4 132/2/4
f 131/1/4 122/1/4 132/1/4
f 129/2/4 130/2/4 133/2/4
f 126/2/4 129/2/4 133/2/4
f 130/3/4 131/3/4 134/3/4
f 133/2/4 130/2/4 134/2/4
f 131/2/4 132/2/4 135/2/4
f 134/3/4 131/3/4 135/3/4
f 132/2/4 120/2/4 136/2/4
f 135/2/4 132/2/4 136/2/4
f 137/2/4 138/2/4 139/2/4
f 139/2/4 138/2/4 140/2/4
f 140/2/4 138/2/4 141/2/4
f 139/2/4 140/2/4 142/2/4
f 142/2/4 140/2/4 143/2/4
f 141/2/4 138/2/4 144/2/4
f 144/2/4 138/2/4 145/2/4
f 146/3/4 147/3/4 150/3/4
f 148/2/4 149/2/4 151/2/4
f 151/2/4 149/2/4 152/2/4
f 146/3/4 150/3/4 153/3/4
f 150/3/4 151/3/4 153/3/4
f 153/3/4 151/3/4 154/3/4
f 152/2/4 149/2/4 155/2/4
f 146/3/4 153/3/4 156/3/4
f 153/2/4 154/2/4 157/2/4
f 156/3/4 153/3/4 157/3/4
f 154/2/4 155/2/4 157/2/4
f 157/2/4 155/2/4 158/2/4
f 155/2/4 149/2/4 159/2/4
f 158/2/4 155/2/4 159/2/4
f 160/3/4 161/3/4 162/3/4
f 162/3/4 161/3/4 163/3/4
f 164/2/4 165/2/4 166/2/4
f 166/2/4 165/2/4 167/2/4
f 170/2/5 169/2/5 168/2/5
f 171/2/5 169/2/5 170/2/5
f 174/2/5 173/2/5 172/2/5
f 175/2/5 173/2/5 174/2/5
f 176/2/5 173/2/5 175/2/5
f 177/2/5 173/2/5 176/2/5
f 178/2/5 173/2/5 177/2/5
f 179/2/5 173/2/5 178/2/5
f 180/2/5 176/2/5 175/2/5
f 181/2/5 176/2/5 180/2/5
f 182/2/5 178/2/5 177/2/5
f 183/2/5 178/2/5 182/2/5
f 186/2/5 185/2/5 184/2/5
f 187/2/5 185/2/5 186/2/5
f 189/3/5 188/3/5 187/3/5
f 190/3/5 188/3/5 189/3/5
f 193/2/5 192/2/5 191/2/5
f 194/2/5 192/2/5 193/2/5
f 197/2/5 196/2/5 195/2/5
f 198/2/5 196/2/5 197/2/5
f 199/2/6 200/2/6 201/2/6
f 201/2/6 200/2/6 202/2/6
f 199/2/6 201/2/6 203/2/6
f 202/2/6 200/2/6 204/2/6
f 199/2/6 203/2/6 205/2/6
f 203/2/6 204/2/6 205/2/6
f 204/2/6 200/2/6 206/2/6
f 205/2/6 204/2/6 206/2/6
f 207/3/6 208/3/6 209/3/6
f 209/3/6 208/3/6 210/3/6
f 211/2/6 212/2/6 213/2/6
f 213/2/6 212/2/6 214/2/6
f 215/2/6 216/2/6 217/2/6
f 217/2/6 216/2/6 218/2/6
f 219/3/6 220/3/6 221/3/6
f 221/3/6 220/3/6 222/3/6
f 223/2/6 224/2/6 225/2/6
f 225/2/6 224/2/6 226/2/6
f 227/2/6 228/2/6 229/2/6
f 229/2/6 228/2/6 230/2/6
f 231/2/6 232/2/6 233/2/6
f 233/2/6 232/2/6 234/2/6
